<svg width="2511" height="303" viewBox="0 0 2511 303" fill="none" xmlns="http://www.w3.org/2000/svg">
<g clip-path="url(#clip0_27_25)">
<path d="M648.981 4.53452C649.161 4.53377 649.34 4.53301 649.525 4.53224C649.723 4.53227 649.922 4.5323 650.126 4.53233C650.441 4.5314 650.441 4.5314 650.761 4.53045C651.345 4.52891 651.929 4.52813 652.513 4.52769C653.142 4.52703 653.771 4.52541 654.4 4.52394C655.92 4.5206 657.441 4.5189 658.961 4.5174C659.676 4.51666 660.392 4.51576 661.107 4.51487C663.486 4.512 665.864 4.50955 668.242 4.50833C668.859 4.50801 669.477 4.50768 670.094 4.50735C670.248 4.50727 670.401 4.50719 670.559 4.50711C673.045 4.50571 675.531 4.50143 678.017 4.49595C680.569 4.49037 683.12 4.48733 685.672 4.48679C687.105 4.48642 688.537 4.48494 689.97 4.48063C691.191 4.47697 692.411 4.47561 693.631 4.47725C694.254 4.47802 694.877 4.47769 695.499 4.47442C696.174 4.4709 696.849 4.47262 697.525 4.47485C697.721 4.473 697.918 4.47115 698.121 4.46924C699.393 4.47939 700.131 4.65462 701.109 5.49868C701.911 6.44238 702.601 7.45728 703.295 8.48211C703.917 9.40231 704.553 10.313 705.189 11.2242C706.024 12.4235 706.857 13.6246 707.683 14.8301C708.366 15.8254 709.056 16.8162 709.746 17.8069C710.581 19.0062 711.414 20.2072 712.24 21.4127C712.923 22.4081 713.613 23.3989 714.303 24.3895C715.139 25.5888 715.971 26.7899 716.797 27.9954C717.481 28.9908 718.17 29.9815 718.86 30.9722C719.696 32.1715 720.528 33.3726 721.355 34.578C722.038 35.5734 722.728 36.5642 723.418 37.5549C724.253 38.7542 725.085 39.9552 725.912 41.1607C726.595 42.1561 727.285 43.1468 727.975 44.1375C728.81 45.3368 729.643 46.5379 730.469 47.7433C731.152 48.7387 731.842 49.7295 732.532 50.7202C733.366 51.9177 734.198 53.1168 735.023 54.3208C735.495 55.0088 735.97 55.6941 736.447 56.3785C736.632 56.6441 736.632 56.6441 736.821 56.9152C737.067 57.2674 737.313 57.6195 737.559 57.9714C737.671 58.1315 737.783 58.2917 737.898 58.4567C738.048 58.6722 738.048 58.6722 738.202 58.892C738.44 59.2439 738.44 59.2439 738.608 59.5815C739.629 58.2007 740.606 56.7929 741.575 55.3754C741.964 54.8075 742.354 54.2408 742.744 53.6739C742.898 53.4489 743.053 53.2238 743.208 52.9988C743.517 52.5487 743.827 52.0986 744.136 51.6485C744.213 51.5372 744.289 51.4259 744.368 51.3112C744.523 51.0852 744.679 50.8592 744.834 50.6332C745.211 50.0855 745.587 49.5377 745.963 48.9895C746.868 47.6707 747.779 46.3566 748.693 45.0447C749.693 43.6104 750.682 42.1692 751.665 40.7231C752.425 39.6056 753.195 38.4946 753.968 37.3861C755.181 35.6474 756.377 33.8974 757.569 32.1445C758.707 30.4733 759.859 28.8121 761.015 27.1534C762.241 25.3933 763.451 23.6223 764.658 21.8485C765.796 20.1774 766.948 18.5161 768.104 16.8575C768.997 15.5754 769.884 14.2889 770.762 12.9965C771.652 11.6873 772.549 10.3828 773.452 9.08275C773.614 8.84989 773.614 8.84989 773.779 8.61233C774.094 8.15967 774.411 7.70833 774.729 7.25775C774.848 7.08913 774.966 6.92051 775.089 6.74678C775.208 6.58055 775.326 6.41432 775.449 6.24306C775.556 6.09234 775.663 5.94163 775.774 5.78635C776.29 5.13412 776.807 4.82091 777.598 4.55717C777.888 4.5415 778.178 4.53568 778.468 4.53546C778.649 4.53492 778.83 4.53437 779.016 4.53381C779.316 4.5342 779.316 4.5342 779.622 4.5346C779.833 4.53422 780.045 4.53384 780.263 4.53345C780.851 4.53241 781.439 4.53244 782.028 4.53263C782.662 4.53267 783.296 4.53174 783.93 4.53094C785.173 4.52953 786.415 4.52907 787.658 4.52898C788.668 4.5289 789.677 4.52855 790.687 4.52802C793.548 4.52653 796.409 4.52575 799.27 4.52588C799.502 4.52589 799.502 4.52589 799.738 4.5259C799.892 4.5259 800.047 4.52591 800.206 4.52592C802.711 4.52599 805.216 4.52437 807.721 4.52199C810.291 4.51957 812.862 4.5184 815.432 4.51855C816.876 4.5186 818.319 4.51814 819.763 4.51632C820.992 4.51479 822.221 4.51442 823.45 4.51557C824.078 4.51612 824.705 4.51612 825.332 4.51466C826.012 4.5131 826.691 4.51414 827.37 4.51544C827.57 4.51458 827.769 4.51371 827.974 4.51281C828.156 4.51359 828.337 4.51436 828.524 4.51516C828.681 4.51513 828.838 4.51509 829 4.51505C829.453 4.56103 829.715 4.63664 830.091 4.89475C830.509 5.50694 830.477 6.14059 830.474 6.85495C830.475 6.98597 830.476 7.11698 830.476 7.25197C830.479 7.6947 830.479 8.1374 830.479 8.58014C830.48 8.90099 830.482 9.22183 830.483 9.54268C830.487 10.4314 830.489 11.3201 830.49 12.2088C830.492 13.1751 830.496 14.1414 830.5 15.1077C830.506 16.8084 830.511 18.5091 830.515 20.2099C830.52 22.0452 830.525 23.8805 830.531 25.7158C830.532 25.8901 830.532 25.8901 830.532 26.0679C830.534 26.661 830.536 27.2541 830.538 27.8472C830.552 32.0321 830.565 36.2171 830.577 40.402C830.589 44.8341 830.603 49.2662 830.618 53.6983C830.618 53.8321 830.619 53.9658 830.619 54.1036C830.624 55.6018 830.63 57.1 830.635 58.5982C830.644 61.3945 830.654 64.1907 830.663 66.987C830.663 67.1279 830.664 67.2687 830.664 67.4139C830.688 74.4039 830.71 81.3939 830.732 88.384C830.732 88.537 830.733 88.6901 830.733 88.8478C830.784 105.19 830.834 121.531 830.898 143.052C830.907 146.005 830.916 148.958 830.924 151.911C830.926 152.434 830.927 152.957 830.929 153.48C830.962 164.606 830.997 175.731 831.033 186.857C831.059 195.05 831.085 203.243 831.11 211.436C831.11 211.605 831.111 211.773 831.111 211.946C831.122 215.637 831.133 219.328 831.143 223.018C831.148 224.502 831.152 225.985 831.156 227.469C831.157 227.631 831.157 227.793 831.158 227.96C831.173 233.172 831.19 238.384 831.207 243.596C831.225 248.818 831.241 254.04 831.255 259.262C831.257 259.982 831.259 260.702 831.261 261.422C831.261 261.563 831.261 261.704 831.262 261.85C831.268 264.086 831.275 266.322 831.284 268.558C831.292 270.755 831.299 272.951 831.303 275.147C831.306 276.322 831.309 277.496 831.315 278.671C831.32 279.738 831.322 280.805 831.323 281.872C831.324 282.257 831.325 282.641 831.328 283.026C831.331 283.547 831.331 284.067 831.331 284.588C831.333 284.811 831.333 284.811 831.336 285.039C831.33 285.987 831.243 286.942 830.766 287.78C830.254 288.102 829.872 288.16 829.271 288.16C829.023 288.162 829.023 288.162 828.77 288.163C828.588 288.162 828.407 288.161 828.22 288.161C828.027 288.161 827.834 288.162 827.635 288.162C827.099 288.163 826.563 288.163 826.027 288.162C825.448 288.161 824.87 288.162 824.292 288.163C823.16 288.165 822.028 288.164 820.895 288.164C819.975 288.163 819.055 288.163 818.135 288.163C818.004 288.163 817.873 288.163 817.738 288.163C817.472 288.163 817.206 288.163 816.94 288.164C814.446 288.164 811.952 288.163 809.458 288.162C807.318 288.16 805.177 288.16 803.036 288.162C800.551 288.164 798.066 288.164 795.581 288.163C795.316 288.163 795.051 288.163 794.786 288.163C794.656 288.163 794.526 288.163 794.391 288.163C793.472 288.163 792.553 288.163 791.634 288.164C790.513 288.165 789.393 288.165 788.273 288.163C787.702 288.162 787.13 288.162 786.559 288.163C785.939 288.164 785.32 288.162 784.701 288.161C784.52 288.161 784.338 288.162 784.151 288.163C783.986 288.162 783.82 288.161 783.65 288.16C783.507 288.16 783.364 288.16 783.216 288.16C782.79 288.113 782.519 288.004 782.155 287.78C781.545 286.913 781.628 285.697 781.626 284.68C781.626 284.56 781.625 284.439 781.625 284.315C781.623 283.912 781.623 283.509 781.623 283.106C781.623 282.813 781.622 282.52 781.621 282.227C781.619 281.418 781.618 280.609 781.618 279.8C781.616 278.921 781.615 278.041 781.613 277.162C781.61 275.619 781.607 274.076 781.605 272.533C781.602 270.237 781.598 267.941 781.593 265.645C781.586 261.776 781.58 257.906 781.574 254.036C781.568 250.184 781.561 246.331 781.554 242.478C781.554 242.358 781.554 242.238 781.554 242.115C781.551 240.895 781.549 239.675 781.547 238.456C781.542 235.848 781.538 233.241 781.533 230.634C781.533 230.447 781.533 230.447 781.532 230.257C781.522 224.33 781.512 218.403 781.502 212.475C781.501 212.082 781.501 211.689 781.5 211.296C781.496 209.195 781.493 207.094 781.489 204.993C781.48 199.139 781.47 193.284 781.46 187.43C781.459 187.044 781.458 186.657 781.458 186.271C781.448 180.407 781.438 174.544 781.427 168.681C781.427 168.556 781.427 168.431 781.426 168.303C781.422 165.805 781.418 163.308 781.413 160.81C781.411 159.456 781.408 158.102 781.406 156.749C781.406 156.628 781.405 156.507 781.405 156.382C781.399 152.793 781.393 149.203 781.387 145.614C781.378 140.086 781.369 134.558 781.359 129.03C781.358 128.816 781.358 128.602 781.358 128.382C781.327 111.862 781.252 95.3427 781.143 78.8231C780.958 79.092 780.958 79.092 780.769 79.3663C779.783 80.801 779.783 80.801 779.536 81.1605C779.366 81.4074 779.196 81.6543 779.026 81.9012C778.944 82.0211 778.861 82.141 778.777 82.2646C778.702 82.3725 778.628 82.4804 778.552 82.5917C778.399 82.8132 778.247 83.0348 778.095 83.2563C777.728 83.7899 777.361 84.3237 776.995 84.8578C776.09 86.1766 775.179 87.4907 774.264 88.8025C773.265 90.2369 772.276 91.6781 771.293 93.1241C770.421 94.4058 769.536 95.6784 768.649 96.9498C767.884 98.0481 767.126 99.1516 766.374 100.259C765.398 101.695 764.41 103.121 763.417 104.545C762.651 105.644 761.894 106.747 761.141 107.854C760.277 109.126 759.405 110.391 758.525 111.652C757.312 113.391 756.116 115.141 754.924 116.894C753.786 118.565 752.634 120.226 751.478 121.885C750.479 123.319 749.49 124.76 748.507 126.206C747.635 127.488 746.75 128.76 745.863 130.032C745.097 131.13 744.34 132.234 743.588 133.341C742.688 134.665 741.78 135.983 740.866 137.297C740.698 137.538 740.698 137.538 740.527 137.784C740.319 138.083 740.111 138.381 739.902 138.678C739.722 138.935 739.544 139.193 739.368 139.453C739.179 139.728 738.979 139.996 738.777 140.261C738.666 140.261 738.554 140.261 738.44 140.261C738.133 139.838 737.847 139.413 737.564 138.974C737.381 138.694 737.197 138.414 737.013 138.134C736.915 137.985 736.818 137.836 736.718 137.683C736.207 136.909 735.683 136.143 735.159 135.377C735.052 135.22 734.945 135.063 734.834 134.902C734.517 134.438 734.2 133.974 733.882 133.51C733.741 133.303 733.741 133.303 733.597 133.092C733.237 132.566 732.877 132.04 732.517 131.514C731.502 130.032 730.49 128.547 729.478 127.062C728.949 126.285 728.42 125.509 727.891 124.733C727.254 123.799 726.617 122.864 725.98 121.93C724.986 120.472 723.992 119.015 722.996 117.559C721.891 115.946 720.79 114.331 719.689 112.715C719.16 111.939 718.63 111.162 718.101 110.386C717.464 109.452 716.827 108.518 716.19 107.583C715.197 106.126 714.203 104.668 713.206 103.213C711.886 101.284 710.57 99.3527 709.254 97.4214C708.153 95.8064 707.052 94.1917 705.948 92.5791C704.844 90.9658 703.742 89.3504 702.641 87.7347C702.217 87.1124 701.793 86.4903 701.369 85.8681C701.16 85.5613 700.95 85.2545 700.741 84.9476C700.191 84.1402 699.64 83.333 699.089 82.5258C698.975 82.3581 698.861 82.1903 698.743 82.0175C698.524 81.697 698.305 81.3766 698.087 81.0562C697.988 80.9111 697.889 80.7659 697.787 80.6164C697.7 80.4898 697.614 80.3632 697.525 80.2327C697.208 79.7645 696.894 79.2937 696.581 78.8231C696.468 95.2347 696.395 111.646 696.364 128.058C696.364 128.272 696.364 128.487 696.363 128.707C696.353 134.128 696.344 139.549 696.336 144.97C696.33 148.561 696.324 152.152 696.317 155.743C696.317 155.864 696.317 155.985 696.317 156.109C696.314 157.463 696.312 158.816 696.309 160.17C696.305 162.666 696.3 165.163 696.296 167.659C696.296 167.784 696.296 167.909 696.295 168.037C696.285 173.899 696.275 179.76 696.265 185.622C696.264 186.008 696.264 186.395 696.263 186.781C696.253 192.632 696.243 198.483 696.233 204.334C696.23 206.432 696.226 208.529 696.223 210.626C696.222 211.019 696.221 211.411 696.221 211.804C696.211 217.717 696.201 223.631 696.19 229.544C696.19 229.669 696.19 229.793 696.19 229.921C696.185 232.4 696.181 234.88 696.176 237.36C696.174 238.699 696.171 240.039 696.169 241.379C696.169 241.499 696.168 241.619 696.168 241.742C696.161 245.588 696.155 249.433 696.149 253.278C696.143 257.24 696.136 261.202 696.129 265.164C696.124 267.444 696.121 269.724 696.117 272.004C696.115 273.526 696.113 275.048 696.109 276.569C696.108 277.436 696.106 278.303 696.105 279.169C696.104 279.958 696.103 280.747 696.101 281.535C696.1 281.818 696.1 282.101 696.1 282.384C696.1 283.636 696.091 284.888 696.031 286.139C696.023 286.306 696.015 286.474 696.007 286.646C695.879 287.224 695.633 287.522 695.23 287.949C694.823 288.153 694.57 288.139 694.115 288.14C693.95 288.14 693.785 288.141 693.615 288.141C693.433 288.141 693.251 288.141 693.063 288.14C692.87 288.141 692.677 288.141 692.478 288.142C691.942 288.142 691.405 288.143 690.868 288.142C690.29 288.142 689.711 288.143 689.133 288.144C688 288.145 686.866 288.146 685.732 288.146C684.811 288.146 683.89 288.146 682.969 288.147C680.359 288.149 677.749 288.149 675.139 288.149C674.999 288.149 674.858 288.149 674.713 288.149C674.572 288.149 674.431 288.149 674.286 288.149C672.001 288.149 669.715 288.151 667.43 288.153C665.086 288.155 662.742 288.157 660.397 288.156C659.08 288.156 657.763 288.157 656.446 288.159C655.325 288.16 654.204 288.161 653.082 288.159C652.51 288.159 651.938 288.159 651.365 288.16C650.746 288.162 650.126 288.161 649.506 288.16C649.324 288.16 649.142 288.161 648.955 288.162C648.789 288.161 648.624 288.161 648.453 288.16C648.31 288.16 648.167 288.16 648.019 288.16C647.58 288.112 647.332 288.015 646.958 287.78C646.399 286.8 646.38 285.683 646.392 284.584C646.392 284.421 646.392 284.258 646.392 284.09C646.392 283.543 646.395 282.996 646.399 282.449C646.4 282.051 646.4 281.653 646.4 281.256C646.402 280.388 646.404 279.52 646.409 278.652C646.415 277.352 646.418 276.052 646.421 274.753C646.425 272.536 646.432 270.319 646.441 268.102C646.449 265.855 646.457 263.607 646.463 261.359C646.463 261.217 646.463 261.075 646.464 260.929C646.466 260.204 646.468 259.48 646.47 258.756C646.483 253.505 646.5 248.254 646.518 243.004C646.535 237.776 646.552 232.549 646.567 227.321C646.567 227.158 646.568 226.995 646.568 226.828C646.573 225.339 646.577 223.851 646.581 222.362C646.592 218.658 646.603 214.955 646.614 211.251C646.614 211.082 646.615 210.913 646.615 210.74C646.64 202.52 646.666 194.3 646.692 186.08C646.728 174.93 646.763 163.78 646.796 152.63C646.797 152.106 646.799 151.582 646.8 151.057C646.809 148.098 646.818 145.139 646.827 142.18C646.876 125.645 646.926 109.111 646.99 88.3625C646.991 88.0526 646.992 87.7428 646.993 87.4329C647.014 80.5839 647.036 73.7349 647.059 66.8859C647.061 66.4591 647.062 66.0323 647.063 65.6056C647.08 60.8429 647.08 60.8429 647.088 58.4777C647.11 51.9076 647.131 45.3375 647.146 38.7674C647.147 38.2462 647.149 37.725 647.15 37.2038C647.15 37.0756 647.151 36.9474 647.151 36.8153C647.155 34.9255 647.16 33.0358 647.166 31.146C647.166 31.025 647.167 30.9039 647.167 30.7791C647.17 29.58 647.174 28.3808 647.178 27.1816C647.179 26.5983 647.181 26.0149 647.183 25.4316C647.183 25.3173 647.184 25.2031 647.184 25.0854C647.19 23.1718 647.193 21.2581 647.196 19.3444C647.199 17.6927 647.204 16.0409 647.21 14.3892C647.213 13.45 647.216 12.5109 647.216 11.5717C647.216 10.7205 647.219 9.86937 647.223 9.01821C647.224 8.7115 647.225 8.40479 647.224 8.09808C647.223 7.68388 647.226 7.2698 647.229 6.85562C647.228 6.73628 647.227 6.61695 647.226 6.494C647.236 5.76612 647.357 5.30583 647.801 4.72596C648.224 4.51485 648.509 4.53544 648.981 4.53452Z" fill="#FE0749"/>
<path d="M2.86315 4.53504C3.00435 4.5347 3.14556 4.53435 3.29105 4.53399C3.76942 4.53303 4.24779 4.53328 4.72617 4.53352C5.0706 4.53309 5.41502 4.53258 5.75945 4.532C6.71015 4.53063 7.66084 4.53034 8.61154 4.53021C9.63553 4.5299 10.6595 4.52863 11.6835 4.52749C14.0432 4.52507 16.403 4.52409 18.7627 4.52332C19.9303 4.52293 21.0979 4.52232 22.2655 4.52169C26.2666 4.51952 30.2677 4.51771 34.2688 4.51713C34.5202 4.51709 34.7715 4.51705 35.0229 4.51702C35.2749 4.51698 35.5269 4.51694 35.7788 4.5169C36.2843 4.51683 36.7898 4.51675 37.2953 4.51668C37.4833 4.51665 37.4833 4.51665 37.6751 4.51662C41.7271 4.51601 45.7791 4.51333 49.8311 4.50939C54.1199 4.50522 58.4086 4.50292 62.6974 4.50272C63.1698 4.50269 63.6421 4.50265 64.1145 4.50261C64.289 4.5026 64.289 4.5026 64.4669 4.50258C66.3275 4.50239 68.188 4.50054 70.0486 4.49807C71.9258 4.49563 73.8029 4.49516 75.6801 4.49646C76.6944 4.49711 77.7086 4.49699 78.7229 4.49459C95.7049 4.45684 111.94 8.36886 135.786 25.7574C136.042 25.9938 136.301 26.2268 136.561 26.4592C138.88 28.544 140.97 30.8556 142.962 33.2509C143.094 33.4083 143.094 33.4083 143.229 33.569C144.641 35.2569 145.942 37.0021 147.182 38.8208C147.311 39.0096 147.311 39.0096 147.442 39.2022C148.597 40.8976 149.702 42.6138 150.726 44.3908C150.812 44.5384 150.897 44.6859 150.986 44.838C156.458 54.3013 159.952 64.5425 161.233 75.4052C161.247 75.524 161.261 75.6428 161.276 75.7652C161.627 78.7823 161.738 81.7689 161.739 84.8045C161.74 85.0902 161.74 85.0902 161.74 85.3817C161.737 88.5156 161.619 91.5815 161.191 94.689C161.149 94.9998 161.149 94.9998 161.106 95.3169C159.561 106.329 155.246 116.461 149.207 125.746C149.092 125.925 148.976 126.103 148.858 126.288C145.717 131.084 142.055 135.435 138.014 139.491C137.871 139.635 137.728 139.779 137.581 139.927C136.812 140.694 136.033 141.425 135.198 142.118C135.413 142.591 135.633 142.931 136.007 143.292C136.099 143.381 136.19 143.471 136.285 143.564C136.382 143.658 136.48 143.751 136.58 143.848C137.396 144.65 138.175 145.461 138.911 146.338C139.112 146.57 139.112 146.57 139.317 146.806C140.597 148.289 141.791 149.832 142.962 151.401C143.052 151.521 143.142 151.642 143.235 151.766C145.665 155.025 147.761 158.472 149.713 162.035C149.788 162.17 149.863 162.305 149.94 162.444C154.716 171.087 157.649 180.745 159.028 190.496C159.054 190.679 159.081 190.861 159.107 191.049C159.589 194.614 159.736 198.165 159.725 201.76C159.725 202.106 159.724 202.452 159.724 202.798C159.717 206.281 159.627 209.72 159.165 213.177C159.135 213.409 159.105 213.641 159.075 213.873C157.58 225.217 153.973 236.283 148.026 246.09C147.944 246.224 147.863 246.359 147.779 246.497C144.944 251.146 141.683 255.666 137.968 259.656C137.753 259.891 137.538 260.126 137.332 260.369C136.395 261.471 135.37 262.485 134.345 263.506C134.028 263.823 133.711 264.14 133.394 264.458C132.393 265.46 131.39 266.447 130.303 267.357C130.127 267.509 129.95 267.661 129.774 267.813C128.458 268.934 127.12 270.021 125.746 271.071C125.629 271.16 125.512 271.249 125.391 271.341C122.338 273.662 119.134 275.779 115.787 277.653C115.63 277.742 115.473 277.83 115.311 277.921C102.89 284.877 88.8615 288.145 74.6774 288.143C74.3577 288.143 74.0381 288.144 73.7185 288.145C72.8498 288.146 71.9811 288.147 71.1125 288.147C70.172 288.148 69.2316 288.15 68.2912 288.151C66.0275 288.154 63.7638 288.156 61.5001 288.158C60.4329 288.158 59.3656 288.159 58.2983 288.16C54.7502 288.163 51.2022 288.166 47.6541 288.167C47.4253 288.167 47.1965 288.167 46.9678 288.167C46.8543 288.167 46.7409 288.167 46.624 288.167C46.0494 288.167 45.4747 288.168 44.9001 288.168C44.7861 288.168 44.672 288.168 44.5545 288.168C40.8488 288.169 37.1432 288.173 33.4375 288.179C29.5144 288.184 25.5914 288.188 21.6683 288.188C19.5315 288.189 17.3947 288.19 15.2579 288.194C13.441 288.198 11.6241 288.2 9.80713 288.198C8.87993 288.197 7.95276 288.197 7.02556 288.201C6.17756 288.204 5.32962 288.204 4.48161 288.201C4.17422 288.2 3.86683 288.201 3.55944 288.203C3.14279 288.206 2.72636 288.204 2.30971 288.201C2.12919 288.204 2.12919 288.204 1.94502 288.207C1.14083 288.195 0.734082 288.011 0.168879 287.443C-0.0225495 287.06 -0.0211211 286.854 -0.0213532 286.429C-0.0218388 286.286 -0.0223247 286.143 -0.022825 285.996C-0.0224989 285.837 -0.0221727 285.679 -0.0218367 285.516C-0.0221525 285.347 -0.0224684 285.179 -0.0227938 285.005C-0.0236494 284.432 -0.0232776 283.859 -0.0229184 283.285C-0.023263 282.87 -0.0236774 282.455 -0.0241553 282.039C-0.0251293 281.004 -0.025274 279.969 -0.0250531 278.933C-0.0248867 278.06 -0.0250835 277.187 -0.0255071 276.314C-0.0255678 276.187 -0.0256284 276.06 -0.0256909 275.929C-0.0257521 275.802 -0.0258136 275.674 -0.0258766 275.542C-0.0274438 272.267 -0.0268686 268.993 -0.0259575 265.719C-0.0256693 264.643 -0.0255084 263.567 -0.0254211 262.492C-0.0239091 244.009 0.00545952 225.527 0.211616 151.031C0.23363 143.709 0.255182 136.387 0.276304 129.065C0.278095 128.445 0.279887 127.824 0.281679 127.203C0.287755 125.098 0.293827 122.993 0.299897 120.889C0.31504 115.637 0.330194 110.386 0.34548 105.135C0.345827 105.015 0.346174 104.896 0.346532 104.773C0.367801 97.4666 0.389835 90.1602 0.412559 82.8538C0.414333 82.2833 0.416105 81.7129 0.417877 81.1425C0.429603 77.368 0.441339 73.5935 0.453161 69.819C0.4848 59.7161 0.513768 49.6131 0.53571 39.5101C0.540525 37.2962 0.545781 35.0822 0.55151 32.8682C0.551869 32.7294 0.552227 32.5906 0.552597 32.4476C0.556095 31.0957 0.559655 29.7437 0.563308 28.3917C0.565043 27.7482 0.566753 27.1048 0.568446 26.4613C0.568775 26.3362 0.569104 26.2112 0.569444 26.0823C0.574525 24.1303 0.577904 22.1784 0.580478 20.2264C0.582954 18.3669 0.587113 16.5073 0.593131 14.6478C0.596778 13.4999 0.598472 12.3521 0.598459 11.2042C0.598977 10.5283 0.601563 9.85237 0.604822 9.17646C0.605886 8.87077 0.606098 8.56508 0.605369 8.25939C0.604503 7.84864 0.606708 7.43802 0.609713 7.02729C0.608715 6.91 0.607716 6.79271 0.606688 6.67187C0.616754 5.90545 0.778485 5.37708 1.1816 4.72601C1.71247 4.46058 2.28031 4.53373 2.86315 4.53504ZM49.792 52.9988C49.792 74.1089 49.792 95.219 49.792 116.969C72.4902 118.814 72.4902 118.814 95.8706 113.256C95.9801 113.195 96.0895 113.134 96.2023 113.072C97.6724 112.249 98.9918 111.335 100.259 110.217C100.403 110.092 100.547 109.967 100.695 109.838C101.118 109.463 101.534 109.083 101.947 108.698C102.072 108.583 102.196 108.467 102.325 108.348C103.449 107.268 104.39 106.061 105.323 104.816C105.396 104.718 105.469 104.621 105.545 104.52C110.717 97.5769 113.215 89.2608 112.053 80.6059C111.265 75.3663 109.25 70.3615 105.998 66.1642C105.879 66.0095 105.76 65.8548 105.637 65.6954C100.212 58.8659 92.9697 54.1234 84.2083 53.0768C82.7944 52.9404 81.3711 52.9768 79.9522 52.9797C79.6174 52.9797 79.2826 52.9797 78.9478 52.9796C78.0547 52.9796 77.1617 52.9806 76.2687 52.9818C75.4293 52.9827 74.59 52.9828 73.7506 52.9829C71.2992 52.9838 68.8478 52.9861 66.3963 52.9883C60.9169 52.9918 55.4375 52.9953 49.792 52.9988ZM49.792 166.423C49.6654 175.276 49.5802 184.128 49.5334 192.982C49.5291 193.787 49.5247 194.592 49.5202 195.397C49.441 209.651 49.4353 223.904 49.4544 238.157C53.0978 238.173 56.7412 238.185 60.3846 238.192C62.0768 238.196 63.7689 238.2 65.4611 238.208C66.9381 238.215 68.4152 238.219 69.8923 238.221C70.6724 238.222 71.4525 238.224 72.2326 238.229C81.4755 238.285 89.9143 236.23 97.0521 230.056C97.182 229.944 97.3119 229.833 97.4457 229.719C99.5091 227.908 101.458 225.974 103.086 223.76C103.297 223.473 103.511 223.19 103.726 222.907C106.572 219.105 108.475 214.655 109.5 210.033C109.534 209.883 109.567 209.732 109.602 209.577C110.12 207.111 110.282 204.696 110.27 202.185C110.27 202.04 110.269 201.896 110.269 201.747C110.26 199.504 110.176 197.318 109.711 195.117C109.678 194.956 109.644 194.795 109.609 194.629C108.393 188.981 105.934 183.782 102.116 179.42C101.952 179.228 101.952 179.228 101.785 179.033C99.8494 176.82 97.7642 174.714 95.3643 173.006C95.2501 172.924 95.136 172.843 95.0184 172.759C89.1328 168.602 82.4289 166.387 75.2193 166.404C74.9414 166.404 74.6635 166.404 74.3855 166.404C73.6348 166.404 72.8841 166.405 72.1334 166.406C71.3475 166.407 70.5615 166.407 69.7756 166.407C68.289 166.408 66.8024 166.409 65.3158 166.411C63.6226 166.413 61.9294 166.414 60.2362 166.415C56.7548 166.416 53.2734 166.419 49.792 166.423Z" fill="#FE0749"/>
<path d="M292.749 -0.0527744C292.983 -0.0523992 293.217 -0.0520319 293.45 -0.0516721C296.818 -0.0444913 300.14 0.0168886 303.478 0.50633C303.717 0.540242 303.957 0.574112 304.197 0.607947C311.396 1.63872 318.275 3.59973 324.913 6.58263C325.046 6.64102 325.179 6.69941 325.316 6.75958C330.837 9.18858 336.072 12.6173 340.779 16.3722C340.885 16.4564 340.992 16.5405 341.101 16.6272C342.452 17.7009 343.767 18.7979 345.025 19.9787C345.387 20.3138 345.753 20.6368 346.127 20.9578C347.003 21.7212 347.819 22.5432 348.638 23.3663C348.868 23.5949 348.868 23.5949 349.102 23.8282C349.964 24.6914 350.789 25.5728 351.582 26.4994C351.75 26.6888 351.919 26.8778 352.088 27.0664C353.486 28.6394 354.757 30.2912 356 31.9881C356.291 32.3845 356.585 32.7789 356.879 33.173C359.193 36.2982 361.131 39.6679 363.059 43.0404C363.125 43.1546 363.191 43.2687 363.259 43.3863C369.785 54.776 372.323 68.2532 372.388 81.2393C372.39 81.716 372.394 82.1927 372.397 82.6694C372.406 84.1702 372.414 85.671 372.422 87.1717C372.427 88.0781 372.432 88.9845 372.437 89.8909C372.465 95.1473 372.489 100.404 372.511 105.66C372.512 105.774 372.512 105.887 372.513 106.005C372.57 119.786 372.617 133.568 372.68 160.347C372.68 160.505 372.681 160.663 372.681 160.827C372.698 169.042 372.711 177.257 372.718 185.473C372.718 185.938 372.718 186.404 372.719 186.87C372.719 187.179 372.719 187.487 372.719 187.796C372.721 190.083 372.724 192.369 372.728 194.656C372.732 197.248 372.735 199.84 372.735 202.432C372.735 203.753 372.735 205.073 372.739 206.394C372.762 216.623 372.762 216.623 372.174 221.11C372.135 221.42 372.096 221.731 372.058 222.042C371.969 222.75 371.86 223.454 371.741 224.158C371.71 224.346 371.71 224.346 371.678 224.537C369.744 236.114 365.208 247.096 358.502 256.724C358.428 256.829 358.355 256.935 358.279 257.044C355.178 261.492 351.65 265.607 347.826 269.446C347.684 269.588 347.543 269.731 347.397 269.878C346.568 270.704 345.719 271.491 344.83 272.252C344.627 272.43 344.424 272.609 344.222 272.788C342.888 273.959 341.532 275.08 340.104 276.134C339.991 276.218 339.878 276.301 339.762 276.387C336.827 278.55 333.809 280.554 330.652 282.379C330.51 282.462 330.367 282.544 330.22 282.63C322.16 287.262 313.071 290.206 303.868 291.42C303.504 291.468 303.14 291.518 302.776 291.571C296.221 292.502 288.929 292.462 282.379 291.494C282.169 291.465 281.959 291.436 281.743 291.406C273.798 290.301 266.119 287.934 258.918 284.405C258.743 284.319 258.567 284.233 258.387 284.144C254.547 282.244 250.886 280.03 247.441 277.484C247.329 277.403 247.217 277.321 247.102 277.237C244.91 275.631 242.757 273.959 240.758 272.116C240.414 271.803 240.067 271.497 239.716 271.192C237.822 269.538 236.016 267.803 234.34 265.929C234.104 265.666 233.864 265.407 233.623 265.148C232.613 264.064 231.651 262.949 230.731 261.787C230.646 261.681 230.561 261.574 230.473 261.464C224.294 253.706 219.446 245.076 216.384 235.625C216.331 235.465 216.278 235.304 216.224 235.139C213.204 225.899 212.468 216.423 212.486 206.774C212.487 206.078 212.488 205.382 212.489 204.685C212.491 202.058 212.496 199.431 212.502 196.805C212.502 196.583 212.503 196.361 212.503 196.133C212.52 188.56 212.542 180.987 212.564 173.414C212.569 171.787 212.574 170.161 212.579 168.534C212.594 163.427 212.61 158.319 212.625 153.212C212.626 153.055 212.626 152.899 212.627 152.737C212.629 152.103 212.63 151.468 212.632 150.834C212.634 150.356 212.635 149.879 212.637 149.402C212.637 149.244 212.638 149.087 212.638 148.924C212.654 143.798 212.669 138.673 212.684 133.547C212.7 128.077 212.716 122.608 212.733 117.138C212.735 116.535 212.736 115.932 212.738 115.329C212.739 115.181 212.739 115.032 212.74 114.879C212.747 112.525 212.754 110.171 212.76 107.817C212.767 105.444 212.774 103.072 212.782 100.699C212.786 99.4221 212.79 98.1452 212.793 96.8683C212.807 91.7405 212.837 86.6133 212.909 81.486C212.914 81.1216 212.919 80.7572 212.924 80.3927C213.076 68.7901 215.224 57.4482 220.266 46.9225C220.338 46.7699 220.411 46.6173 220.485 46.46C223.462 40.2074 227.298 34.3382 231.743 29.0312C231.827 28.9312 231.91 28.8312 231.996 28.7282C234.302 25.9653 236.77 23.203 239.519 20.8714C239.896 20.548 240.26 20.2112 240.626 19.8745C241.566 19.0273 242.555 18.2531 243.556 17.4799C243.923 17.1952 244.287 16.9079 244.652 16.6201C246.051 15.5172 247.457 14.4628 248.96 13.5029C249.17 13.3642 249.38 13.2253 249.591 13.0862C259.139 6.78971 269.662 2.4649 280.987 0.717312C281.202 0.683765 281.418 0.650217 281.64 0.615653C285.339 0.0707776 289.013 -0.0633805 292.749 -0.0527744ZM273.94 55.6994C273.808 55.8128 273.676 55.9261 273.54 56.0429C273.103 56.4267 272.676 56.8198 272.252 57.2185C272.157 57.3076 272.062 57.3968 271.965 57.4887C266.26 62.8946 262.833 70.389 262.431 78.2559C262.42 78.8662 262.417 79.4756 262.42 80.086C262.419 80.3198 262.419 80.5536 262.418 80.7874C262.417 81.4239 262.417 82.0605 262.418 82.6971C262.419 83.3919 262.418 84.0867 262.417 84.7815C262.415 85.9974 262.415 87.2132 262.415 88.429C262.416 90.2371 262.415 92.0452 262.414 93.8533C262.411 97.2708 262.411 100.688 262.412 104.106C262.412 106.745 262.412 109.385 262.411 112.024C262.411 112.404 262.411 112.783 262.411 113.163C262.41 113.735 262.41 114.307 262.41 114.879C262.409 120.195 262.408 125.511 262.409 130.827C262.409 131.027 262.409 131.227 262.409 131.434C262.409 132.449 262.409 133.464 262.409 134.479C262.409 134.681 262.409 134.883 262.409 135.09C262.409 135.498 262.409 135.906 262.409 136.314C262.41 142.657 262.409 149.001 262.406 155.344C262.402 162.475 262.401 169.606 262.401 176.737C262.401 177.497 262.401 178.258 262.401 179.019C262.401 179.206 262.401 179.393 262.401 179.586C262.402 182.41 262.4 185.235 262.399 188.059C262.397 191.272 262.396 194.485 262.398 197.698C262.4 199.495 262.399 201.292 262.397 203.088C262.396 204.29 262.396 205.492 262.398 206.695C262.399 207.378 262.399 208.062 262.397 208.745C262.378 216.085 263.692 223.106 268.032 229.212C268.153 229.382 268.274 229.552 268.399 229.727C270.564 232.682 273.002 235.318 275.965 237.482C276.061 237.553 276.156 237.623 276.254 237.696C279.024 239.733 282.253 241.21 285.586 242.039C285.722 242.074 285.858 242.109 285.999 242.145C290.24 243.188 295.382 243.215 299.595 242.039C299.757 241.995 299.918 241.95 300.084 241.905C303.558 240.914 306.707 239.37 309.554 237.144C309.791 236.96 309.791 236.96 310.033 236.773C317.033 231.189 322.042 223.154 323.144 214.19C323.24 213.312 323.249 212.442 323.247 211.559C323.247 211.384 323.248 211.209 323.248 211.029C323.248 210.443 323.248 209.857 323.247 209.272C323.248 208.847 323.248 208.422 323.248 207.998C323.249 206.953 323.249 205.908 323.248 204.863C323.248 203.993 323.248 203.123 323.248 202.254C323.248 202.065 323.248 202.065 323.248 201.873C323.248 201.616 323.248 201.36 323.249 201.103C323.249 198.498 323.249 195.893 323.248 193.288C323.248 193 323.247 192.712 323.247 192.424C323.247 192.281 323.247 192.138 323.247 191.99C323.247 190.542 323.246 189.093 323.246 187.645C323.244 172.49 323.223 157.335 323.076 111.594C323.063 108.212 323.051 104.831 323.04 101.45C323.03 98.2993 323.019 95.1488 323.005 91.9983C323.004 91.6934 323.002 91.3885 323.001 91.0836C323 90.8615 323 90.8615 322.999 90.635C322.995 89.6305 322.991 88.626 322.989 87.6215C322.986 86.4567 322.981 85.2919 322.974 84.1271C322.971 83.5628 322.968 82.9984 322.968 82.434C322.955 73.4496 320.634 65.1369 314.452 58.4349C314.155 58.1105 313.873 57.7794 313.594 57.44C313.036 56.788 312.41 56.2438 311.748 55.6994C311.665 55.6306 311.583 55.5618 311.497 55.4909C300.982 46.7872 284.316 46.576 273.94 55.6994Z" fill="#FE0749"/>
<path d="M518.005 0.506362C518.279 0.541609 518.279 0.541609 518.559 0.577568C523.388 1.20113 528.079 2.32627 532.689 3.88208C532.855 3.93797 533.022 3.99386 533.194 4.05145C540.804 6.63591 547.947 10.6095 554.294 15.5283C554.431 15.6346 554.431 15.6346 554.572 15.7429C556.657 17.3521 558.664 19.0355 560.59 20.832C560.913 21.1326 561.238 21.4315 561.562 21.7306C561.801 21.9522 562.04 22.174 562.279 22.3958C562.39 22.498 562.501 22.6002 562.616 22.7055C563.277 23.3225 563.885 23.9648 564.474 24.6515C564.912 25.1584 565.374 25.6426 565.834 26.1302C566.759 27.1202 567.633 28.1357 568.472 29.2C568.556 29.306 568.641 29.4121 568.728 29.5213C578.462 41.7414 584.572 55.8691 586.962 77.6636C586.969 77.868 586.976 78.0725 586.984 78.2831C587.053 80.4276 587.067 82.5711 587.071 84.7165C587.073 85.1529 587.074 85.5892 587.076 86.0256C587.079 86.9651 587.082 87.9046 587.084 88.8441C587.088 90.2423 587.092 91.6406 587.097 93.0388C587.105 95.3985 587.112 97.7583 587.118 100.118C587.125 102.467 587.132 104.816 587.139 107.166C587.14 107.313 587.14 107.46 587.141 107.612C587.142 108.21 587.144 108.809 587.146 109.407C587.164 115.022 587.18 120.636 587.196 126.251C587.211 131.18 587.225 136.109 587.241 141.037C587.242 141.351 587.243 141.665 587.244 141.979C587.244 142.134 587.245 142.289 587.245 142.449C587.248 143.231 587.25 144.013 587.252 144.795C587.253 144.949 587.253 145.103 587.254 145.262C587.267 149.43 587.279 153.597 587.292 157.764C587.292 157.914 587.293 158.064 587.293 158.219C587.295 158.82 587.297 159.422 587.298 160.024C587.304 161.924 587.31 163.823 587.316 165.722C587.337 172.743 587.356 179.764 587.371 186.784C587.373 188.158 587.376 189.532 587.38 190.907C587.387 194.043 587.394 197.179 587.398 200.315C587.399 201.656 587.401 202.996 587.405 204.336C587.408 205.459 587.41 206.582 587.41 207.704C587.41 208.273 587.411 208.841 587.413 209.409C587.427 213.398 587.283 217.396 586.743 221.352C586.714 221.566 586.686 221.779 586.656 221.998C584.583 236.88 578.368 251.141 568.64 262.631C568.494 262.807 568.347 262.983 568.201 263.159C567.229 264.323 566.227 265.456 565.193 266.565C564.893 266.888 564.594 267.212 564.295 267.537C564.073 267.776 563.851 268.015 563.63 268.254C563.527 268.365 563.425 268.476 563.32 268.59C562.697 269.259 562.049 269.873 561.352 270.464C561.047 270.731 560.766 271.011 560.486 271.303C559.873 271.925 559.204 272.465 558.523 273.012C558.167 273.302 557.819 273.595 557.475 273.898C545.138 284.747 527.987 291.763 510.284 292.034C509.961 292.036 509.961 292.036 509.632 292.038C508.942 292.041 508.251 292.042 507.561 292.042C507.385 292.042 507.385 292.042 507.205 292.042C503.748 292.044 500.333 292.008 496.906 291.494C496.703 291.465 496.499 291.436 496.289 291.406C486.368 289.974 476.817 286.688 468.213 281.535C468.06 281.444 467.907 281.353 467.749 281.259C463.982 279.001 460.434 276.43 457.073 273.602C456.983 273.527 456.893 273.452 456.801 273.374C454.642 271.555 452.595 269.645 450.596 267.653C450.516 267.573 450.435 267.493 450.353 267.411C449.404 266.467 448.489 265.507 447.621 264.488C447.461 264.305 447.3 264.122 447.139 263.94C445.823 262.43 444.601 260.859 443.401 259.255C443.303 259.125 443.205 258.995 443.104 258.861C441.714 257.016 440.4 255.141 439.181 253.179C439.117 253.077 439.053 252.974 438.987 252.869C432.323 242.156 428.509 230.103 427.366 217.565C427.352 217.415 427.338 217.265 427.324 217.11C427.167 215.223 427.174 213.341 427.176 211.448C427.176 211.068 427.175 210.688 427.175 210.308C427.174 209.265 427.174 208.223 427.175 207.181C427.175 206.512 427.175 205.843 427.175 205.174C427.175 205.061 427.175 204.948 427.175 204.831C427.175 204.601 427.175 204.37 427.175 204.14C427.174 201.796 427.175 199.451 427.176 197.107C427.176 196.847 427.176 196.587 427.176 196.328C427.176 196.198 427.176 196.069 427.176 195.936C427.177 194.625 427.177 193.313 427.177 192.001C427.18 177.772 427.202 163.543 427.346 118.551C427.36 114.797 427.373 111.043 427.386 107.289C427.398 103.408 427.412 99.5268 427.427 95.6459C427.428 95.2528 427.43 94.8597 427.432 94.4667C427.432 94.2747 427.433 94.0828 427.434 93.885C427.439 92.5669 427.443 91.2487 427.447 89.9305C427.452 88.3689 427.458 86.8072 427.465 85.2455C427.469 84.471 427.472 83.6966 427.473 82.9221C427.483 78.593 427.586 74.2804 428.168 69.9829C428.197 69.7691 428.225 69.5552 428.255 69.3349C430.406 53.8334 437.277 38.7969 447.925 27.2431C448.127 27.0226 448.326 26.8008 448.519 26.573C449.458 25.4686 450.485 24.4532 451.512 23.4306C451.829 23.1139 452.146 22.7963 452.462 22.4786C453.464 21.4766 454.464 20.4861 455.554 19.5792C455.662 19.4877 455.77 19.3962 455.881 19.302C461.557 14.5203 467.795 10.4791 474.476 7.2447C474.794 7.08961 475.111 6.93093 475.427 6.77189C482.174 3.4333 489.651 1.52897 497.075 0.506362C497.264 0.478485 497.454 0.450608 497.649 0.421886C504.229 -0.518761 511.43 -0.410676 518.005 0.506362ZM487.961 56.2058C487.808 56.3402 487.655 56.4747 487.497 56.6132C480.958 62.4055 477.624 70.1963 476.99 78.8231C476.911 80.5491 476.92 82.2768 476.924 84.0041C476.926 84.6874 476.924 85.3707 476.923 86.0539C476.921 87.2469 476.921 88.4399 476.922 89.6329C476.924 91.407 476.923 93.1811 476.922 94.9552C476.919 98.125 476.919 101.295 476.921 104.465C476.922 107.239 476.922 110.013 476.922 112.787C476.922 112.971 476.922 113.155 476.922 113.345C476.922 114.094 476.921 114.843 476.921 115.591C476.92 122.606 476.921 129.621 476.924 136.636C476.926 142.861 476.926 149.086 476.924 155.311C476.921 162.314 476.92 169.316 476.921 176.319C476.921 177.066 476.922 177.814 476.922 178.561C476.922 178.745 476.922 178.929 476.922 179.118C476.922 181.89 476.922 184.661 476.921 187.433C476.919 190.586 476.919 193.739 476.922 196.892C476.924 198.654 476.924 200.416 476.922 202.178C476.921 203.358 476.921 204.537 476.924 205.717C476.925 206.387 476.925 207.058 476.923 207.728C476.902 216.165 478.488 223.916 483.741 230.731C483.871 230.899 484.001 231.068 484.135 231.242C484.818 232.099 485.545 232.917 486.283 233.727C486.363 233.814 486.442 233.902 486.524 233.992C491.055 238.887 497.829 242.356 504.519 242.735C505.294 242.764 506.068 242.77 506.844 242.768C507.242 242.767 507.64 242.771 508.038 242.775C510.487 242.786 512.868 242.449 515.22 241.754C515.367 241.711 515.514 241.668 515.666 241.624C520.237 240.232 524.034 237.543 527.457 234.275C527.613 234.128 527.769 233.981 527.93 233.829C529.138 232.66 530.165 231.399 531.17 230.055C531.242 229.961 531.314 229.866 531.388 229.769C532.612 228.156 533.613 226.45 534.546 224.654C534.602 224.547 534.657 224.44 534.715 224.329C535.91 222.004 536.748 219.496 537.299 216.943C537.324 216.829 537.349 216.715 537.374 216.598C537.935 213.785 537.968 210.97 537.957 208.112C537.956 207.693 537.956 207.274 537.956 206.854C537.955 205.832 537.953 204.81 537.95 203.788C537.946 202.566 537.944 201.343 537.943 200.121C537.94 197.625 537.934 195.129 537.927 192.633C537.923 190.796 537.918 188.959 537.915 187.121C537.9 180.227 537.881 173.333 537.86 166.439C537.854 164.517 537.848 162.595 537.843 160.674C537.828 155.715 537.813 150.757 537.798 145.799C537.798 145.643 537.797 145.488 537.797 145.327C537.794 144.538 537.792 143.749 537.789 142.959C537.788 142.643 537.787 142.326 537.786 142.01C537.786 141.853 537.785 141.696 537.785 141.535C537.77 136.563 537.755 131.59 537.741 126.618C537.725 120.976 537.708 115.334 537.69 109.692C537.689 109.091 537.687 108.491 537.685 107.89C537.684 107.742 537.684 107.594 537.684 107.442C537.676 105.077 537.669 102.713 537.663 100.348C537.656 97.9821 537.649 95.6162 537.641 93.2502C537.637 91.8494 537.633 90.4486 537.629 89.0478C537.626 88 537.623 86.9522 537.619 85.9043C537.618 85.4827 537.616 85.0612 537.616 84.6396C537.618 79.9485 537.618 79.9485 537.13 75.2892C537.101 75.105 537.072 74.9208 537.041 74.731C535.892 67.8916 532.647 61.9593 527.794 57.0497C527.7 56.9521 527.606 56.8545 527.509 56.7539C522.672 51.7906 515.575 49.1352 508.721 48.948C508.517 48.9412 508.313 48.9345 508.103 48.9275C500.679 48.8011 493.504 51.2249 487.961 56.2058Z" fill="#FE0749"/>
<path d="M2.87892 4.53642C3.02179 4.53623 3.16467 4.53603 3.31188 4.53583C3.79588 4.53538 4.27987 4.53615 4.76386 4.5369C5.11226 4.53682 5.46066 4.53667 5.80905 4.53646C6.7705 4.53608 7.73195 4.53676 8.6934 4.5376C9.72868 4.53833 10.7639 4.53808 11.7992 4.53796C13.5943 4.53787 15.3893 4.53839 17.1843 4.53935C19.0675 4.54034 20.9507 4.541 22.8338 4.54118C23.0093 4.5412 23.0093 4.5412 23.1883 4.54121C23.7823 4.54127 24.3763 4.54132 24.9704 4.54137C29.1807 4.54173 33.3911 4.54286 37.6015 4.54446C41.6924 4.54601 45.7834 4.5472 49.8744 4.54792C50.0004 4.54794 50.1265 4.54797 50.2563 4.54799C51.5221 4.54821 52.7878 4.54843 54.0536 4.54864C56.6322 4.54906 59.2108 4.54954 61.7894 4.55005C61.908 4.55007 62.0265 4.55009 62.1487 4.55012C70.07 4.55167 77.9912 4.55435 85.9124 4.55719C85.9124 4.61289 85.9124 4.66859 85.9124 4.72598C85.7345 4.72608 85.5567 4.72618 85.3734 4.72628C77.5353 4.73077 69.6972 4.73609 61.8591 4.74567C61.6812 4.74588 61.6812 4.74588 61.4997 4.7461C58.922 4.74925 56.3442 4.75255 53.7665 4.75601C52.5024 4.7577 51.2384 4.75936 49.9743 4.76101C49.8485 4.76117 49.7227 4.76133 49.5931 4.7615C45.514 4.76681 41.4349 4.76992 37.3557 4.7719C33.1648 4.77395 28.9738 4.7782 24.7829 4.78524C24.1913 4.78623 23.5997 4.78719 23.0081 4.78814C22.8916 4.78833 22.7752 4.78852 22.6552 4.78871C20.779 4.79168 18.9028 4.79231 17.0265 4.79208C15.1414 4.7919 13.2563 4.79421 11.3712 4.79892C10.3494 4.8014 9.32752 4.80277 8.30566 4.80122C7.37101 4.79983 6.43642 4.80152 5.50178 4.8057C5.16283 4.80667 4.82388 4.80648 4.48493 4.80506C4.02568 4.80329 3.56662 4.80564 3.10737 4.80905C2.97447 4.80755 2.84156 4.80605 2.70462 4.8045C1.86753 4.81651 1.43794 4.97807 0.844238 5.56991C1.25647 4.42155 1.74739 4.53269 2.87892 4.53642Z" fill="#FE2A64"/>
<path d="M648.985 4.53642C649.165 4.53608 649.345 4.53575 649.53 4.5354C649.729 4.53589 649.929 4.53638 650.134 4.53689C650.344 4.53675 650.555 4.5366 650.772 4.53645C651.358 4.53607 651.944 4.53675 652.53 4.5376C653.162 4.53832 653.793 4.53808 654.425 4.53795C655.519 4.53786 656.614 4.53839 657.709 4.53934C659.291 4.54071 660.874 4.54115 662.456 4.54137C665.024 4.54173 667.591 4.54286 670.159 4.54445C672.654 4.546 675.148 4.5472 677.643 4.54792C677.796 4.54796 677.95 4.548 678.108 4.54805C678.879 4.54827 679.65 4.54848 680.421 4.54869C686.82 4.55044 693.22 4.55342 699.619 4.55719C699.619 4.61289 699.619 4.66859 699.619 4.72597C699.511 4.72607 699.402 4.72618 699.291 4.72628C692.878 4.73233 686.465 4.74189 680.052 4.756C679.282 4.7577 678.512 4.75936 677.743 4.761C677.513 4.76149 677.513 4.76149 677.278 4.76199C674.796 4.76723 672.313 4.7701 669.831 4.77209C667.284 4.77418 664.738 4.77882 662.192 4.78583C660.62 4.79007 659.048 4.79233 657.476 4.79204C656.399 4.79204 655.322 4.7945 654.244 4.79892C653.622 4.80139 653.001 4.80277 652.379 4.80122C651.705 4.79957 651.031 4.80311 650.357 4.80716C650.16 4.80585 649.963 4.80454 649.76 4.80319C648.703 4.80643 648.703 4.80643 647.758 5.23781C647.661 5.3474 647.564 5.45699 647.464 5.5699C647.8 4.63305 648.007 4.53602 648.985 4.53642Z" fill="#FE2862"/>
<path d="M240.351 20.0855C240.463 20.1412 240.574 20.1969 240.689 20.2543C238.517 22.4266 236.344 24.5989 234.106 26.837C233.995 26.7813 233.883 26.7256 233.769 26.6682C237.801 22.3198 237.801 22.3198 239.577 20.8226C239.849 20.5885 240.101 20.3419 240.351 20.0855Z" fill="#FE5784"/>
<path d="M776.754 4.89478C776.865 4.95047 776.976 5.00617 777.091 5.06356C776.534 5.62056 775.977 6.17755 775.403 6.75142C775.403 6.02185 775.766 5.75829 776.247 5.23235C776.414 5.12095 776.581 5.00955 776.754 4.89478Z" fill="#FE618B"/>
</g>
<path d="M1347.59 5.06765C1347.77 5.06687 1347.95 5.06609 1348.14 5.06529C1348.33 5.06532 1348.53 5.06535 1348.74 5.06539C1349.05 5.06442 1349.05 5.06442 1349.37 5.06344C1349.96 5.06184 1350.54 5.06103 1351.12 5.06057C1351.75 5.05989 1352.38 5.05821 1353.01 5.05669C1354.53 5.05323 1356.05 5.05147 1357.57 5.04991C1358.29 5.04915 1359.01 5.04821 1359.72 5.04729C1362.1 5.04431 1364.48 5.04178 1366.86 5.04051C1367.48 5.04018 1368.09 5.03984 1368.71 5.0395C1368.86 5.03942 1369.02 5.03933 1369.18 5.03924C1371.66 5.03779 1374.15 5.03336 1376.64 5.02768C1379.19 5.0219 1381.74 5.01874 1384.29 5.01818C1385.73 5.01781 1387.16 5.01627 1388.59 5.01181C1389.81 5.00801 1391.03 5.0066 1392.26 5.0083C1392.88 5.0091 1393.5 5.00876 1394.12 5.00537C1394.8 5.00173 1395.47 5.00351 1396.15 5.00581C1396.35 5.0039 1396.54 5.00198 1396.75 5C1398.02 5.01052 1398.76 5.19211 1399.73 6.06684C1400.54 7.04481 1401.23 8.09658 1401.92 9.15863C1402.54 10.1123 1403.18 11.056 1403.82 12.0004C1404.65 13.2431 1405.48 14.4879 1406.31 15.7372C1406.99 16.7687 1407.68 17.7955 1408.37 18.8221C1409.21 20.065 1410.04 21.3097 1410.87 22.5589C1411.55 23.5905 1412.24 24.6172 1412.93 25.6439C1413.77 26.8867 1414.6 28.1314 1415.43 29.3807C1416.11 30.4122 1416.8 31.439 1417.49 32.4656C1418.33 33.7085 1419.16 34.9532 1419.99 36.2024C1420.67 37.234 1421.36 38.2607 1422.05 39.2874C1422.89 40.5303 1423.72 41.775 1424.55 43.0242C1425.23 44.0558 1425.92 45.0825 1426.61 46.1092C1427.44 47.352 1428.28 48.5967 1429.1 49.846C1429.79 50.8775 1430.48 51.9043 1431.17 52.9309C1432 54.172 1432.83 55.4147 1433.66 56.6624C1434.13 57.3753 1434.61 58.0856 1435.08 58.7948C1435.27 59.0701 1435.27 59.0701 1435.46 59.3509C1435.7 59.716 1435.95 60.0808 1436.2 60.4455C1436.31 60.6115 1436.42 60.7775 1436.53 60.9484C1436.69 61.1718 1436.69 61.1718 1436.84 61.3996C1437.08 61.7643 1437.08 61.7643 1437.25 62.1141C1438.27 60.6832 1439.24 59.2242 1440.21 57.7553C1440.6 57.1668 1440.99 56.5794 1441.38 55.992C1441.54 55.7588 1441.69 55.5256 1441.85 55.2923C1442.16 54.8259 1442.47 54.3594 1442.77 53.893C1442.85 53.7776 1442.93 53.6623 1443.01 53.5435C1443.16 53.3092 1443.32 53.075 1443.47 52.8408C1443.85 52.2732 1444.23 51.7055 1444.6 51.1374C1445.51 49.7707 1446.42 48.4089 1447.33 47.0494C1448.33 45.5629 1449.32 44.0694 1450.31 42.5708C1451.07 41.4127 1451.84 40.2613 1452.61 39.1125C1453.82 37.3106 1455.02 35.4971 1456.21 33.6805C1457.35 31.9487 1458.5 30.227 1459.66 28.5082C1460.89 26.6841 1462.1 24.8488 1463.3 23.0106C1464.44 21.2787 1465.59 19.5571 1466.75 17.8382C1467.64 16.5096 1468.53 15.1764 1469.41 13.837C1470.3 12.4803 1471.2 11.1284 1472.1 9.78109C1472.26 9.53977 1472.26 9.53977 1472.43 9.29358C1472.74 8.82448 1473.06 8.35675 1473.38 7.8898C1473.5 7.71506 1473.61 7.54031 1473.74 7.36027C1473.86 7.188 1473.97 7.01574 1474.1 6.83825C1474.2 6.68206 1474.31 6.52588 1474.42 6.36496C1474.94 5.68904 1475.45 5.36444 1476.25 5.09113C1476.54 5.07488 1476.83 5.06886 1477.12 5.06863C1477.3 5.06807 1477.48 5.0675 1477.67 5.06692C1477.96 5.06733 1477.96 5.06733 1478.27 5.06774C1478.48 5.06734 1478.69 5.06695 1478.91 5.06654C1479.5 5.06547 1480.09 5.06549 1480.68 5.0657C1481.31 5.06574 1481.95 5.06477 1482.58 5.06394C1483.82 5.06249 1485.07 5.06201 1486.31 5.06191C1487.32 5.06183 1488.33 5.06147 1489.34 5.06091C1492.2 5.05937 1495.06 5.05856 1497.92 5.0587C1498.16 5.05871 1498.16 5.05871 1498.39 5.05872C1498.55 5.05872 1498.7 5.05873 1498.86 5.05874C1501.37 5.05881 1503.87 5.05714 1506.38 5.05467C1508.95 5.05216 1511.52 5.05095 1514.09 5.0511C1515.54 5.05116 1516.98 5.05067 1518.42 5.0488C1519.65 5.04721 1520.88 5.04682 1522.11 5.04801C1522.74 5.04858 1523.37 5.04859 1523.99 5.04707C1524.67 5.04545 1525.35 5.04653 1526.03 5.04788C1526.23 5.04698 1526.43 5.04608 1526.64 5.04516C1526.82 5.04596 1527 5.04677 1527.19 5.04759C1527.34 5.04756 1527.5 5.04752 1527.66 5.04748C1528.12 5.09513 1528.38 5.17349 1528.75 5.44096C1529.17 6.07539 1529.14 6.73206 1529.14 7.47237C1529.14 7.60815 1529.14 7.74392 1529.14 7.88381C1529.14 8.34262 1529.14 8.8014 1529.14 9.26023C1529.14 9.59273 1529.15 9.92523 1529.15 10.2577C1529.15 11.1787 1529.15 12.0997 1529.15 13.0207C1529.16 14.0221 1529.16 15.0235 1529.16 16.0249C1529.17 17.7874 1529.17 19.5499 1529.18 21.3124C1529.18 23.2144 1529.19 25.1163 1529.19 27.0183C1529.2 27.1989 1529.2 27.1989 1529.2 27.3832C1529.2 27.9979 1529.2 28.6125 1529.2 29.2272C1529.22 33.5641 1529.23 37.901 1529.24 42.238C1529.25 46.8311 1529.27 51.4242 1529.28 56.0173C1529.28 56.1559 1529.28 56.2945 1529.28 56.4373C1529.29 57.9899 1529.29 59.5425 1529.3 61.0951C1529.31 63.993 1529.32 66.8908 1529.33 69.7886C1529.33 69.9346 1529.33 70.0806 1529.33 70.231C1529.35 77.4749 1529.37 84.7189 1529.4 91.9628C1529.4 92.1214 1529.4 92.2801 1529.4 92.4435C1529.45 109.379 1529.5 126.314 1529.56 148.617C1529.57 151.677 1529.58 154.737 1529.59 157.797C1529.59 158.34 1529.59 158.882 1529.59 159.424C1529.63 170.953 1529.66 182.483 1529.7 194.012C1529.72 202.503 1529.75 210.994 1529.77 219.485C1529.77 219.659 1529.77 219.834 1529.78 220.013C1529.79 223.838 1529.8 227.663 1529.81 231.487C1529.81 233.025 1529.82 234.562 1529.82 236.1C1529.82 236.268 1529.82 236.436 1529.82 236.609C1529.84 242.01 1529.85 247.412 1529.87 252.813C1529.89 258.225 1529.91 263.636 1529.92 269.048C1529.92 269.794 1529.92 270.54 1529.92 271.286C1529.92 271.432 1529.93 271.579 1529.93 271.729C1529.93 274.047 1529.94 276.364 1529.95 278.682C1529.96 280.958 1529.96 283.234 1529.97 285.51C1529.97 286.727 1529.97 287.944 1529.98 289.162C1529.98 290.268 1529.99 291.374 1529.99 292.479C1529.99 292.878 1529.99 293.276 1529.99 293.675C1530 294.215 1530 294.754 1529.99 295.294C1530 295.525 1530 295.525 1530 295.761C1529.99 296.743 1529.91 297.733 1529.43 298.602C1528.92 298.935 1528.54 298.996 1527.93 298.996C1527.69 298.997 1527.69 298.997 1527.43 298.999C1527.25 298.998 1527.07 298.997 1526.88 298.996C1526.69 298.997 1526.5 298.997 1526.3 298.998C1525.76 298.999 1525.23 298.999 1524.69 298.997C1524.11 298.997 1523.53 298.998 1522.95 298.999C1521.82 299 1520.69 299 1519.56 298.999C1518.64 298.998 1517.72 298.998 1516.79 298.999C1516.66 298.999 1516.53 298.999 1516.4 298.999C1516.13 298.999 1515.87 298.999 1515.6 298.999C1513.11 299 1510.61 298.999 1508.12 298.997C1505.97 298.995 1503.83 298.996 1501.69 298.997C1499.21 298.999 1496.72 299 1494.23 298.999C1493.97 298.999 1493.7 298.999 1493.44 298.999C1493.31 298.999 1493.18 298.998 1493.04 298.998C1492.13 298.998 1491.21 298.999 1490.29 298.999C1489.17 299 1488.05 299 1486.92 298.998C1486.35 298.997 1485.78 298.997 1485.21 298.998C1484.59 298.999 1483.97 298.998 1483.35 298.996C1483.17 298.997 1482.99 298.998 1482.8 298.999C1482.64 298.998 1482.47 298.997 1482.3 298.996C1482.16 298.996 1482.01 298.996 1481.87 298.996C1481.44 298.947 1481.17 298.834 1480.8 298.602C1480.19 297.703 1480.28 296.443 1480.28 295.389C1480.28 295.264 1480.27 295.14 1480.27 295.011C1480.27 294.594 1480.27 294.176 1480.27 293.758C1480.27 293.454 1480.27 293.15 1480.27 292.847C1480.27 292.008 1480.27 291.17 1480.27 290.332C1480.27 289.421 1480.26 288.509 1480.26 287.598C1480.26 285.999 1480.26 284.4 1480.25 282.801C1480.25 280.422 1480.25 278.042 1480.24 275.663C1480.24 271.653 1480.23 267.642 1480.22 263.632C1480.22 259.639 1480.21 255.647 1480.2 251.654C1480.2 251.53 1480.2 251.406 1480.2 251.277C1480.2 250.014 1480.2 248.75 1480.2 247.486C1480.19 244.784 1480.19 242.082 1480.18 239.38C1480.18 239.186 1480.18 239.186 1480.18 238.989C1480.17 232.847 1480.16 226.704 1480.15 220.562C1480.15 220.154 1480.15 219.747 1480.15 219.339C1480.15 217.162 1480.14 214.985 1480.14 212.807C1480.13 206.74 1480.12 200.674 1480.11 194.607C1480.11 194.206 1480.11 193.806 1480.11 193.405C1480.1 187.329 1480.09 181.253 1480.08 175.176C1480.08 175.047 1480.08 174.918 1480.08 174.785C1480.07 172.196 1480.07 169.608 1480.06 167.02C1480.06 165.617 1480.06 164.214 1480.06 162.811C1480.06 162.685 1480.05 162.56 1480.05 162.431C1480.05 158.711 1480.04 154.992 1480.04 151.272C1480.03 145.543 1480.02 139.814 1480.01 134.085C1480.01 133.863 1480.01 133.642 1480.01 133.414C1479.98 116.294 1479.9 99.1743 1479.79 82.0546C1479.61 82.3333 1479.61 82.3333 1479.42 82.6176C1478.43 84.1044 1478.43 84.1044 1478.18 84.477C1478.01 84.7329 1477.84 84.9887 1477.68 85.2446C1477.59 85.3688 1477.51 85.4931 1477.43 85.6211C1477.35 85.733 1477.28 85.8449 1477.2 85.9601C1477.05 86.1897 1476.9 86.4193 1476.74 86.6489C1476.38 87.2019 1476.01 87.7551 1475.64 88.3086C1474.74 89.6753 1473.83 91.0371 1472.91 92.3966C1471.91 93.8831 1470.92 95.3766 1469.94 96.8752C1469.07 98.2034 1468.18 99.5222 1467.29 100.84C1466.53 101.978 1465.77 103.122 1465.02 104.269C1464.04 105.757 1463.05 107.236 1462.06 108.711C1461.3 109.849 1460.54 110.993 1459.78 112.14C1458.92 113.458 1458.05 114.769 1457.17 116.076C1455.95 117.878 1454.76 119.691 1453.57 121.508C1452.43 123.24 1451.28 124.961 1450.12 126.68C1449.12 128.167 1448.13 129.66 1447.15 131.159C1446.27 132.487 1445.39 133.806 1444.5 135.124C1443.74 136.262 1442.98 137.405 1442.23 138.553C1441.33 139.925 1440.42 141.291 1439.5 142.652C1439.34 142.903 1439.34 142.903 1439.16 143.158C1438.96 143.467 1438.75 143.775 1438.54 144.084C1438.36 144.35 1438.18 144.618 1438.01 144.887C1437.82 145.172 1437.62 145.449 1437.41 145.724C1437.3 145.724 1437.19 145.724 1437.08 145.724C1436.77 145.286 1436.48 144.846 1436.2 144.391C1436.02 144.1 1435.83 143.81 1435.65 143.52C1435.55 143.365 1435.45 143.211 1435.35 143.053C1434.84 142.25 1434.32 141.457 1433.79 140.663C1433.69 140.5 1433.58 140.338 1433.47 140.17C1433.15 139.689 1432.84 139.209 1432.52 138.728C1432.38 138.514 1432.38 138.514 1432.23 138.295C1431.87 137.75 1431.51 137.205 1431.15 136.66C1430.14 135.123 1429.12 133.584 1428.11 132.046C1427.58 131.241 1427.05 130.437 1426.52 129.632C1425.89 128.664 1425.25 127.696 1424.61 126.727C1423.62 125.217 1422.62 123.707 1421.63 122.198C1420.52 120.526 1419.42 118.852 1418.32 117.178C1417.79 116.373 1417.26 115.569 1416.73 114.764C1416.09 113.796 1415.46 112.828 1414.82 111.86C1413.83 110.349 1412.83 108.839 1411.84 107.33C1410.51 105.332 1409.2 103.33 1407.88 101.328C1406.78 99.6549 1405.68 97.9816 1404.58 96.3104C1403.47 94.6384 1402.37 92.9643 1401.27 91.29C1400.84 90.6451 1400.42 90.0003 1399.99 89.3556C1399.79 89.0376 1399.58 88.7196 1399.37 88.4017C1398.82 87.5649 1398.27 86.7283 1397.71 85.8919C1397.6 85.718 1397.49 85.5442 1397.37 85.3651C1397.15 85.033 1396.93 84.7009 1396.71 84.3689C1396.61 84.2185 1396.51 84.0681 1396.41 83.9131C1396.33 83.7819 1396.24 83.6507 1396.15 83.5155C1395.83 83.0302 1395.52 82.5424 1395.21 82.0546C1395.09 99.0624 1395.02 116.07 1394.99 133.078C1394.99 133.3 1394.99 133.522 1394.99 133.751C1394.98 139.369 1394.97 144.986 1394.96 150.604C1394.95 154.325 1394.95 158.047 1394.94 161.768C1394.94 161.894 1394.94 162.019 1394.94 162.148C1394.94 163.551 1394.94 164.953 1394.93 166.356C1394.93 168.943 1394.92 171.531 1394.92 174.118C1394.92 174.247 1394.92 174.376 1394.92 174.509C1394.91 180.584 1394.9 186.658 1394.89 192.733C1394.89 193.133 1394.89 193.534 1394.89 193.934C1394.88 199.998 1394.87 206.061 1394.86 212.125C1394.85 214.299 1394.85 216.472 1394.85 218.645C1394.85 219.052 1394.85 219.459 1394.85 219.866C1394.84 225.994 1394.83 232.122 1394.81 238.251C1394.81 238.379 1394.81 238.508 1394.81 238.641C1394.81 241.21 1394.81 243.78 1394.8 246.35C1394.8 247.738 1394.8 249.127 1394.79 250.515C1394.79 250.64 1394.79 250.764 1394.79 250.892C1394.79 254.877 1394.78 258.862 1394.77 262.847C1394.77 266.952 1394.76 271.058 1394.75 275.164C1394.75 277.527 1394.75 279.89 1394.74 282.253C1394.74 283.83 1394.74 285.407 1394.73 286.984C1394.73 287.882 1394.73 288.78 1394.73 289.678C1394.73 290.496 1394.73 291.313 1394.73 292.13C1394.72 292.423 1394.72 292.717 1394.72 293.01C1394.72 294.307 1394.72 295.605 1394.65 296.901C1394.65 297.075 1394.64 297.248 1394.63 297.427C1394.5 298.025 1394.26 298.334 1393.85 298.777C1393.45 298.988 1393.19 298.974 1392.74 298.974C1392.57 298.975 1392.41 298.975 1392.24 298.976C1392.06 298.976 1391.87 298.975 1391.69 298.975C1391.49 298.976 1391.3 298.976 1391.1 298.976C1390.56 298.977 1390.03 298.977 1389.49 298.977C1388.91 298.977 1388.33 298.978 1387.76 298.979C1386.62 298.98 1385.49 298.981 1384.35 298.981C1383.43 298.981 1382.51 298.981 1381.59 298.982C1378.98 298.984 1376.37 298.984 1373.76 298.984C1373.62 298.984 1373.48 298.984 1373.33 298.984C1373.19 298.984 1373.05 298.984 1372.9 298.984C1370.62 298.984 1368.33 298.986 1366.05 298.988C1363.7 298.991 1361.36 298.992 1359.01 298.992C1357.69 298.992 1356.38 298.992 1355.06 298.994C1353.94 298.996 1352.82 298.996 1351.69 298.995C1351.12 298.994 1350.55 298.994 1349.98 298.996C1349.36 298.997 1348.74 298.996 1348.12 298.995C1347.93 298.996 1347.75 298.997 1347.57 298.998C1347.4 298.997 1347.23 298.996 1347.06 298.995C1346.92 298.995 1346.78 298.995 1346.63 298.995C1346.19 298.946 1345.94 298.845 1345.57 298.602C1345.01 297.586 1344.99 296.428 1345 295.29C1345 295.121 1345 294.952 1345 294.777C1345 294.211 1345.01 293.644 1345.01 293.077C1345.01 292.665 1345.01 292.252 1345.01 291.84C1345.01 290.941 1345.01 290.041 1345.02 289.142C1345.02 287.795 1345.03 286.448 1345.03 285.101C1345.04 282.804 1345.04 280.506 1345.05 278.209C1345.06 275.88 1345.07 273.55 1345.07 271.221C1345.07 271.074 1345.07 270.926 1345.07 270.775C1345.08 270.024 1345.08 269.274 1345.08 268.524C1345.09 263.082 1345.11 257.64 1345.13 252.199C1345.15 246.781 1345.16 241.364 1345.18 235.947C1345.18 235.778 1345.18 235.609 1345.18 235.435C1345.18 233.893 1345.19 232.35 1345.19 230.808C1345.2 226.969 1345.21 223.131 1345.22 219.293C1345.22 219.118 1345.22 218.943 1345.23 218.763C1345.25 210.244 1345.28 201.726 1345.3 193.208C1345.34 181.653 1345.37 170.098 1345.41 158.543C1345.41 157.999 1345.41 157.456 1345.41 156.913C1345.42 153.846 1345.43 150.779 1345.44 147.712C1345.49 130.578 1345.54 113.443 1345.6 91.9405C1345.6 91.6194 1345.6 91.2984 1345.6 90.9773C1345.62 83.8794 1345.65 76.7816 1345.67 69.6838C1345.67 69.2416 1345.67 68.7993 1345.67 68.357C1345.69 63.4213 1345.69 63.4213 1345.7 60.9703C1345.72 54.1615 1345.74 47.3527 1345.76 40.544C1345.76 40.0038 1345.76 39.4637 1345.76 38.9236C1345.76 38.7907 1345.76 38.6579 1345.76 38.5209C1345.77 36.5626 1345.77 34.6042 1345.78 32.6458C1345.78 32.5203 1345.78 32.3948 1345.78 32.2656C1345.78 31.0228 1345.78 29.7801 1345.79 28.5374C1345.79 27.9328 1345.79 27.3283 1345.79 26.7237C1345.79 26.6054 1345.79 26.487 1345.79 26.365C1345.8 24.3819 1345.8 22.3987 1345.81 20.4155C1345.81 18.7038 1345.81 16.992 1345.82 15.2803C1345.82 14.307 1345.83 13.3337 1345.83 12.3604C1345.83 11.4783 1345.83 10.5963 1345.83 9.7142C1345.83 9.39636 1345.83 9.0785 1345.83 8.76065C1345.83 8.33141 1345.84 7.90229 1345.84 7.47306C1345.84 7.34939 1345.84 7.22573 1345.84 7.09831C1345.85 6.34399 1345.97 5.86698 1346.41 5.26605C1346.83 5.04727 1347.12 5.0686 1347.59 5.06765Z" fill="black"/>
<path d="M970.444 303C949.815 303 932.516 299.072 918.548 291.217C904.795 283.361 894.373 273.121 887.282 260.496C880.19 247.871 876.43 234.404 876 220.096V211.258H882.769H917.259H925L927.896 219.254C929.4 224.024 931.764 228.653 934.987 233.142C938.426 237.631 943.046 241.418 948.848 244.504C954.65 247.31 961.849 248.712 970.444 248.712C984.412 248.712 994.834 245.767 1001.71 239.875C1008.8 233.983 1012.35 225.987 1012.35 215.887C1012.35 208.593 1010.41 202.701 1006.55 198.213C1002.89 193.724 996.983 189.656 988.817 186.008C980.866 182.361 970.229 178.433 956.906 174.225C940.789 169.736 927.036 163.985 915.647 156.971C904.473 149.676 895.985 140.418 890.183 129.196C884.596 117.693 881.802 103.525 881.802 86.6917C881.802 69.8583 885.348 54.9889 892.439 42.0833C899.53 28.8972 909.523 18.657 922.416 11.3625C935.31 3.7875 950.674 0 968.51 0C982.908 0 995.586 2.525 1006.55 7.575C1017.72 12.625 1026.96 19.2181 1034.27 27.3542C1041.79 35.4903 1047.48 44.1875 1051.35 53.4458C1055.22 62.7042 1057.26 71.6819 1057.47 80.3792V89.2167H1050.71H1014.6H1006L1004.61 81.6417C1003.32 74.3472 999.454 68.0347 993.008 62.7042C986.776 57.0931 978.61 54.2875 968.51 54.2875C957.981 54.2875 949.6 56.8125 943.368 61.8625C937.351 66.9125 934.343 74.6278 934.343 85.0083C934.343 91.7417 935.847 97.493 938.855 102.262C942.079 106.751 947.344 110.819 954.65 114.467C962.171 117.833 972.056 121.621 984.305 125.829C1003.21 130.879 1018.58 136.911 1030.4 143.925C1042.22 150.939 1050.92 160.057 1056.51 171.279C1062.09 182.221 1064.89 196.108 1064.89 212.942C1064.89 231.739 1060.81 247.871 1052.64 261.337C1044.69 274.804 1033.62 285.185 1019.44 292.479C1005.47 299.493 989.14 303 970.444 303Z" fill="black"/>
<path d="M1082.81 298.792C1080.88 298.792 1073 298.792 1073 298.792L1076.36 286.167L1153.08 15.5708L1156.5 4.20833H1165.01H1206.27H1215L1218.19 15.5708L1294.91 286.167L1299 298.792H1288.46H1254.94H1247.5L1244.95 290.375L1231.09 243.242H1140.19L1124.5 298.792H1116.33H1082.81ZM1152.11 188.954H1218.84L1185.64 67.7542L1152.11 188.954Z" fill="black"/>
<path d="M1595.14 298.792H1587.08V288.271V14.7292V4.20833H1595.14H1683.14C1700.55 4.20833 1715.59 7.71528 1728.27 14.7292C1741.16 21.7431 1751.15 32.4042 1758.24 46.7125C1765.55 60.7403 1769.2 78.275 1769.2 99.3167C1769.2 120.639 1765.55 138.314 1758.24 152.342C1751.15 166.089 1741.16 176.329 1728.27 183.062C1715.59 189.796 1700.55 193.162 1683.14 193.162H1639.95V288.271V298.792H1631.89H1595.14ZM1638.98 140.979H1681.53C1692.49 140.979 1700.98 137.472 1706.99 130.458C1713.22 123.444 1716.34 112.924 1716.34 98.8958C1716.34 86.5514 1713.55 76.4514 1707.96 68.5958C1702.59 60.7403 1693.78 56.8125 1681.53 56.8125H1638.98V140.979Z" fill="black"/>
<path d="M1810.14 298.792H1802.08V288.271V14.7292V4.20833H1810.14H1845.92H1853.98V14.7292V242.4H1953.9H1961.96V252.921V288.271V298.792H1953.9H1810.14Z" fill="black"/>
<path d="M1999.64 298.792H1991.58V288.271V14.7292V4.20833H1999.64H2036.06H2044.12V14.7292V288.271V298.792H2036.06H1999.64Z" fill="black"/>
<path d="M2099.74 298.792H2091.68V288.271V14.7292V4.20833H2099.74H2129.07C2132.29 4.20833 2134.66 5.19028 2136.16 7.15417C2137.66 9.11805 2138.63 10.6611 2139.06 11.7833L2225.12 187.271V14.7292V4.20833H2232.86H2265.74H2273.8V14.7292V288.271V298.792H2265.74H2236.08H2230L2226.5 291.5L2140.35 121.2V288.271V298.792H2132.29H2099.74Z" fill="black"/>
<path d="M2412.04 303C2391.84 303 2374.54 298.651 2360.15 289.954C2345.96 280.976 2334.9 268.071 2326.95 251.238C2319.21 234.124 2315.02 213.503 2314.38 189.375C2314.16 177.311 2314.05 164.406 2314.05 150.658C2314.05 136.911 2314.16 123.865 2314.38 111.521C2315.02 87.9542 2319.21 67.8944 2326.95 51.3417C2334.9 34.7889 2346.07 22.1639 2360.47 13.4667C2375.08 4.48889 2392.27 0 2412.04 0C2427.94 0 2441.91 2.66528 2453.95 7.99583C2465.98 13.3264 2476.08 20.3403 2484.25 29.0375C2492.41 37.4542 2498.64 46.7125 2502.94 56.8125C2507.24 66.9125 2509.5 76.5917 2509.71 85.85V95.1083H2502.62H2462.65H2456.5L2454.59 88.375C2453.09 83.325 2450.62 78.275 2447.18 73.225C2443.95 67.8945 2439.55 63.4056 2433.96 59.7583C2428.37 56.1111 2421.07 54.2875 2412.04 54.2875C2398.51 54.2875 2387.76 58.9167 2379.81 68.175C2372.07 77.4333 2367.88 92.5833 2367.24 113.625C2366.59 137.753 2366.59 162.301 2367.24 187.271C2367.88 209.154 2372.18 224.865 2380.13 234.404C2388.3 243.943 2399.15 248.712 2412.69 248.712C2421.5 248.712 2429.34 246.749 2436.22 242.821C2443.31 238.612 2448.9 232.16 2452.98 223.462C2457.06 214.765 2459.1 203.683 2459.1 190.217V179.696H2423.97H2416.23V169.175V142.242V131.721H2423.97H2502.94H2511V142.242V188.112C2511 212.24 2506.92 232.861 2498.75 249.975C2490.8 267.089 2479.3 280.275 2464.26 289.533C2449.43 298.511 2432.03 303 2412.04 303Z" fill="black"/>
<defs>
<clipPath id="clip0_27_25">
<rect width="839.711" height="292" fill="white"/>
</clipPath>
</defs>
</svg>
